<svg width="356px" height="462px" viewBox="162 77 356 462" role="img" xmlns="http://www.w3.org/2000/svg">
  <title>icon</title>

  <path d="M340,90 C430,90 505,160 505,255 C505,310 478,355 440,390 C420,410 410,430 408,460 L272,460 C270,430 260,410 240,390 C202,355 175,310 175,255 C175,160 250,90 340,90 Z"
    fill="none" stroke="#010101" stroke-width="6.5"/>

  <line x1="272" y1="460" x2="408" y2="460" stroke="#010101" stroke-width="5"/>

  <line x1="332" y1="458" x2="316" y2="420" stroke="#010101" stroke-width="3.5"/>
  <line x1="348" y1="458" x2="364" y2="420" stroke="#010101" stroke-width="3.5"/>
  <line x1="340" y1="458" x2="340" y2="428" stroke="#010101" stroke-width="3.5"/>

  <path d="M340,190 L365,225 L340,260 L315,225 Z"
    fill="none" stroke="#010101" stroke-width="5" stroke-linejoin="round" stroke-linecap="round"/>

  <path d="M365,225 C380,240 372,260 358,268 C344,276 324,270 315,282 C306,294 311,316 325,324 C339,332 360,326 366,340"
    fill="none" stroke="#010101" stroke-width="5" stroke-linecap="round"/>
  <path d="M315,225 C300,240 308,260 322,268 C336,276 356,270 365,282 C374,294 369,316 355,324 C341,332 320,326 314,340"
    fill="none" stroke="#010101" stroke-width="5" stroke-linecap="round"/>

  <path d="M340,318 L365,353 L340,388 L315,353 Z"
    fill="none" stroke="#010101" stroke-width="5" stroke-linejoin="round" stroke-linecap="round"/>

  <line x1="340" y1="388" x2="340" y2="428" stroke="#010101" stroke-width="4.5" stroke-linecap="round"/>

  <line x1="278" y1="470" x2="402" y2="470" stroke="#010101" stroke-width="4.5"/>
  <line x1="282" y1="479" x2="398" y2="479" stroke="#010101" stroke-width="4.5"/>

  <path d="M290,488 Q340,484 390,488" fill="none" stroke="#010101" stroke-width="4"/>
  <path d="M288,496 Q340,492 392,496" fill="none" stroke="#010101" stroke-width="4"/>
  <path d="M290,504 Q340,500 390,504" fill="none" stroke="#010101" stroke-width="4"/>
  <path d="M292,512 Q340,508 388,512" fill="none" stroke="#010101" stroke-width="4"/>

  <path d="M292,512 Q292,524 340,526 Q388,524 388,512"
    fill="none" stroke="#010101" stroke-width="5" stroke-linecap="round"/>
</svg>
