<svg id="Layer_1" data-name="Layer 1" xmlns="http://www.w3.org/2000/svg" viewBox="0 0 562.6 84.49"><defs><style>.cls-1{fill-rule:evenodd;}</style></defs><path id="Fill-11" class="cls-1" d="M.5,26H19V91.19H54.62V107.5H.5ZM151,91.93V42.26h13.35c13.34,0,20.75,10.39,20.75,25.2s-6.67,24.47-20.75,24.47ZM131.71,107.5h32.61c25.2,0,38.55-16.31,38.55-40,0-25.2-14.84-41.5-37.81-41.5H131.69V107.5Zm97.09,0h19.27L274.76,26H256.23L238.44,83.77,220.64,26H201.38Zm117.12,0h17.79V55.61l31.87,51.89h19.27V26H397.06V78.58L365.2,26H345.92ZM503.8,26V107.5h59.3V91.19H522.33v-17h40V57.83h-40v-17H563.1V26ZM81.22,91.19v-17h40V57.83h-40v-17H122V26H62.76V107.5h59.3V91.19Zm380.27,2.23c-12.61,0-20.76-11.12-20.76-26.69S448.88,40,461.49,40c9.63,0,16.3,6.67,17,14.83h18.53a38.26,38.26,0,0,0-9.63-21.5c-5.94-5.93-14.84-8.89-25.94-8.89-23.73,0-40,17.78-40,42.25s16.31,42.24,40,42.24c11.12,0,20-3,25.94-8.88,5.93-5.2,8.89-13.35,9.63-21.51H478.6c-1.49,8.93-7.38,14.84-17,14.84Zm-169.69-17h19.28l-9.63-29.65Zm29.65,31.14-5.18-14.84H286.62l-5.19,14.84H262.9L292.55,26h19.27l29.65,81.55Z" transform="translate(-0.5 -24.48)"/></svg>