<?xml version="1.0" encoding="utf-8"?>
<!-- Generator: Adobe Illustrator 26.2.1, SVG Export Plug-In . SVG Version: 6.00 Build 0)  -->
<svg version="1.1" id="Ebene_1" xmlns="http://www.w3.org/2000/svg" xmlns:xlink="http://www.w3.org/1999/xlink" x="0px" y="0px"
	 viewBox="0 0 680.31 680.31" style="enable-background:new 0 0 680.31 680.31;" xml:space="preserve">
<g>
	<path d="M33,679.31c-0.07-0.15-0.1-0.34-0.21-0.45c-8.61-9.39-8.93-7.02,1.03-17.31c5.6-5.79,5.79-6.06,0.07-11.86
		c-1.64-1.66-3.3-3.3-4.94-4.96c-4.81-4.89-4.81-4.88-9.15,0.14c-2.99,3.45-6.04,6.85-8.93,10.12c-0.7-0.28-0.89-0.31-1-0.41
		c-9.57-9.56-9.9-7.53-0.77-18.33c5.14-6.08,5.4-5.86-0.09-11.49c-8.84-9.07-8.71-18.3,0.49-27.52
		c54.37-54.51,108.73-109.03,163.14-163.51C313.85,292.35,455.08,151,596.28,9.63c3.96-3.97,8.02-7.42,14.09-7.57
		c6.71-0.17,11.36,3.47,15.33,8.12c3.14,3.68,5.59,3.77,8.78,0.07c2.69-3.13,5.94-5.78,8.88-8.58c0.53,0.21,0.9,0.26,1.12,0.47
		c10.78,10.42,8.67,8.75-0.26,17.76c-3.41,3.44-3.64,5.31-0.33,8.34c2.58,2.36,5.13,4.79,7.38,7.46c2.8,3.33,5.19,3.65,8.06,0.08
		c2.87-3.57,6.03-6.9,8.94-10.19c0.65,0.26,0.83,0.29,0.95,0.39c9.28,7.93,9.3,10.81,0.15,18.99c-4.45,3.97-4.46,4.36-0.24,8.56
		c10.82,10.79,10.8,19.41-0.15,30.38c-91.05,91.13-182.12,182.24-273.17,273.37C292.02,461.13,188.26,565,84.49,668.87
		c-1.65,1.65-3.27,3.35-5.07,4.82c-6.35,5.18-14.17,5.34-20.7,0.41c-1.85-1.4-3.55-3.04-5.14-4.73c-2.71-2.88-5.26-3.12-8.03-0.1
		c-3.13,3.4-6.36,6.71-9.55,10.05C35,679.31,34,679.31,33,679.31z M109.76,623.92c1.7-1.41,3.31-2.52,4.66-3.88
		c78.92-79.01,157.8-158.06,236.72-237.08c89.28-89.39,178.58-178.76,267.88-268.15c5.18-5.18,5.18-5.2-0.04-10.44
		c-15.06-15.11-30.2-30.14-45.14-45.38c-3.08-3.14-5.04-3.05-8.12,0.04c-41.25,41.48-82.61,82.86-123.96,124.25
		C338,287.2,234.23,391.09,130.45,494.99c-23.68,23.7-47.32,47.44-71.09,71.05c-3.06,3.04-3.19,5.02-0.04,8.12
		c15.68,15.43,31.15,31.08,46.71,46.63C107.07,621.82,108.27,622.68,109.76,623.92z M45.65,579.82
		c-9.48,9.54-18.49,18.67-27.57,27.72c-2.86,2.85-1.99,5.19,0.49,7.67c15.58,15.53,31.17,31.06,46.64,46.7
		c2.78,2.81,4.81,2.64,7.46-0.08c7.45-7.64,15.06-15.11,22.6-22.66c4.97-4.97,4.97-4.98,0.14-9.82
		c-14.59-14.63-29.19-29.27-43.8-43.89C49.86,583.71,48.02,582.05,45.65,579.82z M609.96,14.32c-9.54,9.82-19,19.39-28.15,29.25
		c-0.72,0.78,0.06,4.12,1.18,5.27c15.72,16.06,31.67,31.91,47.43,47.93c2.66,2.7,4.43,2.45,6.93-0.14
		c7.51-7.79,15.23-15.38,22.83-23.08c4.38-4.44,4.42-5.5,0.14-9.79c-14.81-14.86-29.64-29.69-44.51-44.5
		C614.31,17.74,612.55,16.48,609.96,14.32z"/>
</g>
</svg>
