<?xml version="1.0" encoding="utf-8"?>
<!-- Generator: Adobe Illustrator 26.2.1, SVG Export Plug-In . SVG Version: 6.00 Build 0)  -->
<svg version="1.1" id="Layer_1" xmlns="http://www.w3.org/2000/svg" xmlns:xlink="http://www.w3.org/1999/xlink" x="0px" y="0px"
	 viewBox="0 0 375 375" style="enable-background:new 0 0 375 375;" xml:space="preserve">
<style type="text/css">
	.st0{fill:#231F20;}
</style>
<path class="st0" d="M48.2,370.7c-5.7-5.7-5.7-14.9,0-20.6L65,333.4L41.6,310l-16.8,16.8c-5.7,5.7-14.9,5.7-20.6,0
	c-5.7-5.7-5.7-14.9,0-20.6L21,289.4l-0.4-0.4c-1.6-1.6-1.6-4.1,0-5.6l63.1-63.1l-13.2-13.2c-0.4-0.4-0.4-1,0-1.4L270.8,5.4
	c13.1-13.1,45-1.7,72.7,26C363,50.9,375,73.1,375,89.2c0,6.3-1.9,11.3-5.5,14.9L169.3,304.4c-0.4,0.4-1,0.4-1.4,0l-13.2-13.2
	l-63.1,63.1c-1.6,1.6-4.1,1.6-5.6,0l-0.4-0.4l-16.8,16.8C63.2,376.4,53.9,376.4,48.2,370.7z M51.8,353.7c-3.7,3.7-3.7,9.9,0,13.5
	c3.7,3.7,9.9,3.7,13.5,0l16.8-16.8l-13.5-13.5L51.8,353.7z M7.8,309.7c-3.7,3.7-3.7,9.9,0,13.5s9.9,3.7,13.5,0l16.8-16.8l-13.5-13.5
	L7.8,309.7z M88.8,345.9l60.3-60.3l-59.6-59.7l-60.3,60.3L88.8,345.9z M168.7,293.9l19.8-19.8L101,186.6l-19.8,19.8L168.7,293.9z
	 M194.1,268.4l37.6-37.7l-87.5-87.5l-37.6,37.7L194.1,268.4z M235.3,227.2l126.9-126.9l-87.5-87.5L147.8,139.7L235.3,227.2z
	 M365.4,96.5c2.8-4.9,2.1-13.3-2.1-23.4C358.6,62,350.4,50,340.1,39.3l-4.5-4.5c-11-10.4-22.9-18.6-33.7-23.1
	c-10-4.2-18.4-4.9-23.4-2.2L365.4,96.5z"/>
<path class="st0" d="M285.5,72.5c-1-1-1-2.5-0.1-3.5l15.7-15.7c1-1,2.6-1,3.5,0l16.9,16.9c1,1,1,2.6,0,3.5l-15.6,15.6
	c-1,1-2.6,1-3.5,0L285.5,72.5z M304.1,84.2l12.1-12.1l-13.4-13.4l-12.1,12.1L304.1,84.2z"/>
<path class="st0" d="M253.8,104.2c-1-1-1-2.6,0-3.5L269.5,85c1-1,2.6-1,3.5,0l16.9,16.9c1,1,1,2.6,0,3.5l-15.7,15.7
	c-1,1-2.6,1-3.5,0L253.8,104.2z M272.5,115.8l12.1-12.1l-13.4-13.4l-12.1,12.1L272.5,115.8z"/>
<path class="st0" d="M222.2,135.8c-1-1-1-2.6,0-3.5l15.7-15.7c1-1,2.6-1,3.5,0l16.9,16.9c1,1,1,2.6,0,3.5l-15.7,15.7
	c-1,1-2.6,1-3.5,0L222.2,135.8z M240.9,147.4l12.1-12.1l-13.4-13.4L227.5,134L240.9,147.4z"/>
<path class="st0" d="M190.7,167.4c-1-1-1-2.6,0-3.5l15.7-15.7c1-1,2.6-1,3.5,0l16.9,16.9c1,1,1,2.6,0,3.5l-15.7,15.7
	c-1,1-2.6,1-3.5,0L190.7,167.4z M209.3,179l12.1-12.1l-13.4-13.4l-12.1,12.1L209.3,179z"/>
<path class="st0" d="M312.9,100c-1-1-1-2.5-0.1-3.5l15.7-15.7c1-1,2.6-1,3.5,0l16.9,16.9c1,1,1,2.6,0,3.5l-15.6,15.6
	c-1,1-2.6,1-3.5,0L312.9,100z M331.5,111.7l12.1-12.1l-13.4-13.4l-12.1,12.1L331.5,111.7z"/>
<path class="st0" d="M281.2,131.6c-1-1-1-2.6,0-3.5l15.7-15.7c1-1,2.6-1,3.5,0l16.9,16.9c1,1,1,2.6,0,3.5l-15.7,15.7
	c-1,1-2.6,1-3.5,0L281.2,131.6z M299.9,143.3l12.1-12.1l-13.4-13.4l-12.1,12.1L299.9,143.3z"/>
<path class="st0" d="M249.7,163.2c-1-1-1-2.6,0-3.5l15.7-15.7c1-1,2.6-1,3.5,0l16.9,16.9c1,1,1,2.6,0,3.5l-15.7,15.7
	c-1,1-2.6,1-3.5,0L249.7,163.2z M268.3,174.9l12.1-12.1l-13.4-13.4l-12.1,12.1L268.3,174.9z"/>
<path class="st0" d="M218.1,194.8c-1-1-1-2.6,0-3.5l15.7-15.7c1-1,2.6-1,3.5,0l16.9,16.9c1,1,1,2.6,0,3.5l-15.7,15.7
	c-1,1-2.6,1-3.5,0L218.1,194.8z M236.8,206.4l12.1-12.1l-13.4-13.4L223.4,193L236.8,206.4z"/>
<path class="st0" d="M258.1,45.2c-1-1-1-2.5-0.1-3.5l15.7-15.7c1-1,2.6-1,3.5,0L294.1,43c1,1,1,2.6,0,3.5l-15.6,15.6
	c-1,1-2.6,1-3.5,0L258.1,45.2z M276.7,56.9l12.1-12.1l-13.4-13.4l-12.1,12.1L276.7,56.9z"/>
<path class="st0" d="M226.5,76.8c-1-1-1-2.6,0-3.5l15.7-15.7c1-1,2.6-1,3.5,0l16.9,16.9c1,1,1,2.6,0,3.5l-15.7,15.7
	c-1,1-2.6,1-3.5,0L226.5,76.8z M245.1,88.5l12.1-12.1l-13.4-13.4l-12.1,12.1L245.1,88.5z"/>
<path class="st0" d="M194.9,108.4c-1-1-1-2.6,0-3.5l15.7-15.7c1-1,2.6-1,3.5,0l16.9,16.9c1,1,1,2.6,0,3.5l-15.7,15.7
	c-1,1-2.6,1-3.5,0L194.9,108.4z M213.6,120.1l12.1-12.1l-13.4-13.4l-12.1,12.1L213.6,120.1z"/>
<path class="st0" d="M163.3,140c-1-1-1-2.6,0-3.5l15.7-15.7c1-1,2.6-1,3.5,0l16.9,16.9c1,1,1,2.6,0,3.5l-15.7,15.7c-1,1-2.6,1-3.5,0
	L163.3,140z M182,151.7l12.1-12.1l-13.4-13.4l-12.1,12.1L182,151.7z"/>
</svg>
