<?xml version="1.0" encoding="UTF-8"?>
<svg width="281px" height="496px" viewBox="0 0 281 496" version="1.1" xmlns="http://www.w3.org/2000/svg" xmlns:xlink="http://www.w3.org/1999/xlink">
    <title>icon</title>
    <defs>
        <polygon id="path-1" points="8.96838459e-05 0.02955 6.98148889 0.02955 6.98148889 8.991 8.96838459e-05 8.991"></polygon>
        <polygon id="path-3" points="0.0005 0.865 25.1355 0.865 25.1355 25.9998 0.0005 25.9998"></polygon>
    </defs>
    <g id="页面-1" stroke="none" stroke-width="1" fill="none" fill-rule="evenodd">
        <g id="画板" transform="translate(-108.000000, 0.000000)">
            <g id="icon" transform="translate(108.000000, 0.000000)">
                <path d="M140.6,0.7 C63.4,0.7 0.6,52.6 0.6,116.4 L0.6,116.5 C1.9,147.6 7.1,173.2 16.1,192.6 C34.1,232.8 45.6,279.4 52.4,339.3 C53.3,352 56.2,362.8 61,371.4 C63.1,375.1 70,380.8 75.3,383.1 C75.4,383.2 75.5,383.4 75.7,383.5 L75.7,383.5 C76,383.9 76.3,384.2 76.6,384.5 C77.7,385.8 78.7,387.3 79.5,388.8 C80.2,390.1 80.7,391.4 81,392.6 L81,392.7 L81,392.8 C81.9,395.4 82.8,398.8 83.4,402.7 C84.2,407.1 84.7,412 85.2,417.3 C85.6,423.1 86,429.2 86.1,435.2 C86.3,441.8 86.3,448.4 86.2,454.3 L86.2,456.4 L86.5,456.4 L102.5,473.7 L102.4,473.7 L107.8,478.4 L121.8,490.6 L121.8,490.6 L122.1,490.9 C124.6,493.1 127.2,495.3 140.5,495.8 L140.7,495.8 C153.9,495.3 156.5,493.1 159.1,490.9 L159.4,490.6 L159.4,490.6 L173.4,478.4 L178.8,473.7 L178.7,473.7 L195.1,456.4 C195,456.4 195,456.4 194.9,456.4 L194.9,454.3 C194.8,448.4 194.8,441.9 195,435.2 C195.1,429.2 195.4,423.2 195.9,417.3 C196.3,412 196.9,407 197.7,402.7 C198.4,398.8 199.1,395.4 200.1,392.8 L200.1,392.7 L200.1,392.6 C200.4,391.3 200.9,390 201.5,388.8 C202.3,387.3 203.3,385.9 204.4,384.5 C204.6,384.2 204.9,383.9 205.3,383.5 C205.4,383.4 205.5,383.3 205.6,383.1 C210.9,380.8 217.8,375.1 219.9,371.4 C224.7,362.8 227.6,352 228.5,339.3 C235.3,279.5 246.8,232.9 264.8,192.7 C273.8,173.3 279,147.7 280.30107,116.6 L280.30107,116.5 C280.6,52.6 217.8,0.7 140.6,0.7 Z M21,188.6 C18.6,183.2 16.4,177.2 14.6,170.8 C13.4,166.1 12.1,160.7 10.9,155 C8.7,143.3 7.3,130.4 6.7,116.2 C6.7,55.8 66.8,6.6 140.7,6.6 C214.6,6.6 274.7,55.8 274.7,116.2 C273.5,145.7 268.6,170 260.4,188.5 C224.7,188.6 185.1,188.6 142.6,188.6 C101.4,188.7 31.5,188.6 21,188.6 Z M155.8,487.5 L155.5,487.8 C153.6,489.4 151.8,491 140.6,491.4 C129.4,491 127.6,489.4 125.7,487.8 L125.4,487.5 L116.4,479.6 C117.8,479.7 119.3,479.7 120.9,479.8 C123.8,479.9 126.9,479.9 130.3,480 C133.6,480 137.1,480.1 140.6,480.1 C144.1,480.1 147.6,480.1 150.9,480 C154.3,480 157.4,479.9 160.3,479.8 C161.9,479.7 163.4,479.7 164.8,479.6 L155.8,487.5 Z M196,387.4 C195.2,388.9 194.6,390.5 194.2,392 C193.2,394.8 192.4,398.3 191.7,402.3 C191,406.7 190.4,411.7 189.9,417 C189.4,422.6 189.1,428.7 189,434.7 C188.8,440.5 188.8,446.3 188.9,451.6 L186.8,451.7 C185.1,451.8 183.5,451.9 182,452 C179.9,452.1 177.9,452.2 175.9,452.3 C173.7,452.4 171.6,452.5 169.5,452.6 C167.1,452.7 164.8,452.7 162.6,452.8 C160.2,452.9 157.7,452.9 155.4,453 C152.9,453.1 150.4,453.1 148,453.1 C145.5,453.1 143,453.2 140.6,453.2 C138.2,453.2 135.7,453.2 133.2,453.1 C130.8,453.1 128.3,453 125.8,453 C123.5,452.9 121.1,452.9 118.6,452.8 C116.4,452.7 114,452.7 111.7,452.6 C109.6,452.5 107.5,452.4 105.3,452.3 C103.3,452.2 101.3,452.1 99.2,452 C97.7,451.9 96.1,451.8 94.4,451.7 L92.3,451.6 C92.3,447.9 92.4,444 92.3,440.1 C98,440.6 104.3,441 110.8,441.3 C122.7,441.8 135,442.1 145.7,442.1 L145.7,438.7 C134.9,438.7 122.6,438.5 111,438 C104.5,437.7 98.1,437.3 92.3,436.8 C92.3,436.2 92.3,435.6 92.3,434.9 C92.2,432.1 92.1,429.2 92,426.4 C97.9,426.9 104.3,427.3 111,427.6 C122.9,428.1 135.2,428.4 145.9,428.4 L145.9,425 C135.1,425 122.8,424.8 111.2,424.3 C104.4,424 97.9,423.6 91.9,423 C91.8,421 91.6,419.1 91.5,417.2 C91.4,415.6 91.2,414.1 91.1,412.6 C97.2,413.2 104.1,413.6 111.1,413.9 C123,414.4 135.3,414.7 146,414.7 L146,411.3 C135.2,411.3 122.9,411.1 111.3,410.6 C104.1,410.3 97,409.8 90.8,409.2 C90.5,406.9 90.2,404.7 89.8,402.6 C89.6,401.2 89.3,399.9 89.1,398.7 C95.8,399.4 103.3,399.8 111.2,400.2 C123.1,400.7 135.4,401 146.1,401 L146.1,397.6 C135.3,397.6 123,397.4 111.4,396.9 C103.2,396.5 95.2,396 88.3,395.3 C88,394.3 87.7,393.3 87.4,392.4 C87.1,390.8 86.4,389.3 85.6,387.8 C85.1,386.8 84.5,385.9 83.8,385 L85.8,385.2 C85.9,385.2 86,385.2 86.2,385.2 C106,387.4 123.6,388.4 141,388.3 C141.9,388.3 142.9,388.3 143.8,388.3 C161,388.3 178.5,387.2 198.2,384.9 C197.1,385.5 196.5,386.5 196,387.4 Z M222.9,338.6 L222.9,338.7 C222.1,350.6 219.4,360.5 215,368.4 C213.2,371.5 205,377.7 202.1,378 C185.2,380.1 170,381.3 155.3,381.8 C151.2,381.9 147.2,381.9 143.3,382 C142.4,382 141.5,382 140.6,382 C139.7,382 138.8,382 137.9,382 C134.1,382 130.1,381.9 126,381.8 C111.3,381.4 96.1,380.1 79.2,378 C76.3,377.6 68.1,371.5 66.3,368.4 C61.9,360.6 59.2,350.6 58.4,338.7 L58.4,338.6 C51.6,278.9 40.1,232.1 22.3,191.6 C36.4,191.6 102.8,191.7 142.5,191.7 C184.5,191.7 223.7,191.7 259,191.6 C241.1,232.1 229.6,278.9 222.9,338.6 Z" id="形状" fill="#010101" fill-rule="nonzero"></path>
                <g id="logo" transform="translate(87.000000, 226.000000)">
                    <g id="LEDVANCE" transform="translate(26.000000, 30.000000)">
                        <g id="asset-1825280_Smart+_logo">
                            <g id="编组" transform="translate(0.000000, 5.000000)">
                                <mask id="mask-2" fill="white">
                                    <use xlink:href="#path-1"></use>
                                </mask>
                                <g id="Clip-2"></g>
                                <path d="M0.854777778,5.98575 C0.817444444,7.75785 2.13017778,8.30085 3.76802222,8.30085 C4.70586667,8.30085 6.13122222,7.8063 6.13122222,6.55245 C6.13122222,5.5758 5.131,5.18985 4.29317778,4.9971 L2.30533333,4.527 C1.25486667,4.2735 0.292133333,3.8034 0.292133333,2.4531 C0.292133333,1.6092 0.854777778,0.02955 3.36793333,0.02955 C5.14344444,0.02955 6.66882222,0.9339 6.66882222,2.7063 L5.81871111,2.7063 C5.75617778,1.40415 4.65593333,0.72885 3.38053333,0.72885 C2.21775556,0.72885 1.1424,1.1631 1.1424,2.4411 C1.1424,3.24885 1.75497778,3.5985 2.49277778,3.75525 L4.66837778,4.2735 C5.93117778,4.5993 6.98148889,5.14185 6.98148889,6.54045 C6.98148889,7.131 6.73135556,9 3.56797778,9 C1.45506667,9 -0.0953555556,8.08365 0.00466666667,5.98575 L0.854777778,5.98575" id="Fill-1" fill="#4D4E4C" mask="url(#mask-2)"></path>
                            </g>
                            <polyline id="Fill-3" fill="#4D4E4C" points="9 5 10.2987325 5 13.506463 12.8904861 16.7012675 5 18 5 18 14 17.1169976 14 17.1169976 6.22258233 17.0909842 6.22258233 13.9220315 14 13.0908944 14 9.90917741 6.22258233 9.88316398 6.22258233 9.88316398 14 9 14 9 5"></polyline>
                            <path d="M21.2359941,10.470413 L24.7267599,10.470413 L23.0123638,5.85703084 L21.2359941,10.470413 Z M22.5776215,5 L23.5217526,5 L27,14 L26.0931149,14 L25.0123638,11.2016728 L20.9751178,11.2016728 L19.9068851,14 L19,14 L22.5776215,5 L22.5776215,5 Z" id="Fill-4" fill="#4D4E4C"></path>
                            <path d="M28.8456677,9.27323576 L32.0037346,9.27323576 C33.0357987,9.27323576 33.9184363,8.61772086 33.9184363,7.52090957 C33.9184363,6.41155254 33.2842243,5.73110298 32.0037346,5.73110298 L28.8456677,5.73110298 L28.8456677,9.27323576 Z M28,5 L32.066073,5 C33.5204296,5 34.7637947,5.71855724 34.7637947,7.3444851 C34.7637947,8.49163617 34.1795461,9.3990068 33.0357987,9.63863042 L33.0357987,9.6637219 C34.191921,9.82775745 34.5275893,10.6092002 34.5897731,11.6933089 C34.627207,12.310873 34.627207,13.5588604 35,14 L34.0677082,14 C33.8686275,13.6596968 33.8686275,12.9790904 33.8315029,12.6008364 C33.7691645,11.3401464 33.644797,9.94113957 32.053234,10.0041819 L28.8456677,10.0041819 L28.8456677,14 L28,14 L28,5 L28,5 Z" id="Fill-5" fill="#4D4E4C"></path>
                            <polyline id="Fill-6" fill="#4D4E4C" points="37 5 44 5 44 5.73110298 40.9204308 5.73110298 40.9204308 14 40.0794153 14 40.0794153 5.73110298 37 5.73110298 37 5"></polyline>
                            <g id="编组" transform="translate(46.000000, 0.000000)" fill="#4D4E4C">
                                <polygon id="Fill-7" points="0.134844828 4.83408621 8.88982759 4.83408621 8.88982759 4.10415517 0.134844828 4.10415517"></polygon>
                                <polygon id="Fill-9" points="4.1472931 8.84653448 4.87722414 8.84653448 4.87722414 0.0917068966 4.1472931 0.0917068966"></polygon>
                            </g>
                        </g>
                    </g>
                    <g id="编组-10">
                        <g id="编组-8">
                            <g id="编组" transform="translate(2.000000, 2.864700)">
                                <path d="M10.5675,13.9868 C8.6805,13.9868 7.1485,12.4548 7.1485,10.5678 C7.1485,8.6798 8.6805,7.1478 10.5675,7.1478 C12.4555,7.1478 13.9865,8.6798 13.9865,10.5678 C13.9865,12.4548 12.4555,13.9868 10.5675,13.9868 M10.5675,4.8608 C7.4145,4.8608 4.8605,7.4148 4.8605,10.5678 C4.8605,13.7198 7.4145,16.2738 10.5675,16.2738 C13.7205,16.2738 16.2745,13.7198 16.2745,10.5678 C16.2745,7.4148 13.7205,4.8608 10.5675,4.8608" id="Fill-1" fill="#C5C5C5"></path>
                                <path d="M10.5675,18.561 C6.1495,18.561 2.5745,14.986 2.5745,10.568 C2.5745,6.149 6.1495,2.574 10.5675,2.574 C14.9865,2.574 18.5615,6.149 18.5615,10.568 C18.5615,14.986 14.9865,18.561 10.5675,18.561 M10.5675,0.287 C4.8835,0.287 0.2875,4.883 0.2875,10.568 C0.2875,16.252 4.8835,20.848 10.5675,20.848 C16.2525,20.848 20.8485,16.252 20.8485,10.568 C20.8485,4.883 16.2295,0.287 10.5675,0.287" id="Fill-7" fill="#636363"></path>
                                <path d="M10.5675,16.2739 C7.4145,16.2739 4.8605,13.7199 4.8605,10.5679 C4.8605,7.4149 7.4145,4.8609 10.5675,4.8609 C13.7205,4.8609 16.2745,7.4149 16.2745,10.5679 C16.2745,13.7199 13.7205,16.2739 10.5675,16.2739 M10.5675,2.5739 C6.1495,2.5739 2.5745,6.1489 2.5745,10.5679 C2.5745,14.9859 6.1495,18.5609 10.5675,18.5609 C14.9865,18.5609 18.5615,14.9859 18.5615,10.5679 C18.5615,6.1489 14.9865,2.5739 10.5675,2.5739" id="Fill-9" fill="#979797"></path>
                                <path d="M10.5675,7.1479 C8.6805,7.1479 7.1485,8.6799 7.1485,10.5679 C7.1485,12.4549 8.6805,13.9869 10.5675,13.9869 C12.4555,13.9869 13.9865,12.4549 13.9865,10.5679 C13.9865,8.6799 12.4555,7.1479 10.5675,7.1479" id="Fill-11" fill="#FFFFFF"></path>
                            </g>
                            <g id="编组">
                                <mask id="mask-4" fill="white">
                                    <use xlink:href="#path-3"></use>
                                </mask>
                                <g id="Clip-6"></g>
                                <path d="M12.5675,23.7128 C6.8835,23.7128 2.2875,19.1168 2.2875,13.4328 C2.2875,7.7478 6.8835,3.1508 12.5675,3.1508 C18.2525,3.1508 22.8485,7.7478 22.8485,13.4328 C22.8485,19.1168 18.2295,23.7128 12.5675,23.7128 M12.5675,0.8648 C5.6175,0.8648 0.0005,6.4828 0.0005,13.4328 C0.0005,20.3828 5.6175,25.9998 12.5675,25.9998 C19.5175,25.9998 25.1355,20.3828 25.1355,13.4328 C25.1355,6.4828 19.4955,0.8648 12.5675,0.8648" id="Fill-5" fill="#000000" mask="url(#mask-4)"></path>
                            </g>
                        </g>
                        <path d="M74.276,18.191 L73.61,16.148 L69.591,16.148 L68.925,18.191 L66.394,18.191 L70.346,7.222 L72.966,7.222 L76.941,18.191 L74.276,18.191 Z M70.301,13.972 L72.9,13.972 L71.611,9.975 L70.301,13.972 Z M93.128,16.326 C91.396,16.326 90.308,14.794 90.308,12.707 C90.308,10.597 91.396,9.087 93.128,9.087 C94.46,9.087 95.304,9.953 95.415,11.108 L97.946,11.108 C97.88,10.02 97.369,8.999 96.614,8.244 C95.792,7.421 94.66,7 93.128,7 C89.93,7 87.732,9.42 87.732,12.707 C87.732,15.993 89.908,18.413 93.128,18.413 C94.66,18.413 95.792,17.991 96.614,17.17 C97.369,16.437 97.857,15.416 97.946,14.305 L95.415,14.305 C95.281,15.46 94.46,16.326 93.128,16.326 L93.128,16.326 Z M41.814,16.037 L41.814,13.75 L47.165,13.75 L47.165,11.596 L41.814,11.596 L41.814,9.309 L47.298,9.309 L47.298,7.222 L39.304,7.222 L39.304,18.191 L47.298,18.191 L47.298,16.037 L41.814,16.037 Z M98.812,7.222 L98.812,18.191 L106.805,18.191 L106.805,16.037 L101.321,16.037 L101.321,13.75 L106.672,13.75 L106.672,11.596 L101.321,11.596 L101.321,9.309 L106.805,9.309 L106.805,7.222 L98.812,7.222 Z M77.518,18.191 L79.916,18.191 L79.916,11.152 L84.201,18.191 L86.777,18.191 L86.777,7.222 L84.379,7.222 L84.379,14.305 L80.094,7.222 L77.518,7.222 L77.518,18.191 Z M61.753,18.191 L64.395,18.191 L68.015,7.222 L65.483,7.222 L63.13,14.994 L60.754,7.222 L58.133,7.222 L61.753,18.191 Z M48.697,18.191 L53.115,18.191 C56.468,18.191 58.334,16.037 58.334,12.773 C58.334,9.42 56.357,7.222 53.271,7.222 L48.697,7.222 L48.697,18.191 Z M51.228,16.059 L51.228,9.332 L52.982,9.332 C54.825,9.332 55.78,10.686 55.78,12.773 C55.78,14.86 54.847,16.059 52.938,16.059 L51.228,16.059 Z M31,7.222 L33.509,7.222 L33.509,16.037 L38.35,16.037 L38.35,18.191 L31,18.191 L31,7.222 Z" id="Fill-3" fill="#000000"></path>
                    </g>
                </g>
            </g>
        </g>
    </g>
</svg>